<svg id="visual" viewBox="0 0 900 600" width="900" height="600" xmlns="http://www.w3.org/2000/svg" xmlns:xlink="http://www.w3.org/1999/xlink" version="1.1"><path d="M0 103L82 37L164 61L245 55L327 67L409 85L491 79L573 49L655 91L736 61L818 43L900 49L900 0L818 0L736 0L655 0L573 0L491 0L409 0L327 0L245 0L164 0L82 0L0 0Z" fill="#00cc8e"></path><path d="M0 241L82 259L164 343L245 223L327 223L409 205L491 247L573 259L655 235L736 301L818 271L900 211L900 47L818 41L736 59L655 89L573 47L491 77L409 83L327 65L245 53L164 59L82 35L0 101Z" fill="#0ab677"></path><path d="M0 469L82 379L164 439L245 397L327 433L409 445L491 451L573 391L655 409L736 457L818 409L900 367L900 209L818 269L736 299L655 233L573 257L491 245L409 203L327 221L245 221L164 341L82 257L0 239Z" fill="#0da061"></path><path d="M0 523L82 511L164 511L245 487L327 517L409 547L491 499L573 457L655 511L736 529L818 457L900 481L900 365L818 407L736 455L655 407L573 389L491 449L409 443L327 431L245 395L164 437L82 377L0 467Z" fill="#0b8b4c"></path><path d="M0 601L82 601L164 601L245 601L327 601L409 601L491 601L573 601L655 601L736 601L818 601L900 601L900 479L818 455L736 527L655 509L573 455L491 497L409 545L327 515L245 485L164 509L82 509L0 521Z" fill="#077739"></path></svg>