<?xml version="1.0" standalone="no"?>
<!DOCTYPE svg PUBLIC "-//W3C//DTD SVG 20010904//EN"
 "http://www.w3.org/TR/2001/REC-SVG-20010904/DTD/svg10.dtd">
<svg version="1.0" xmlns="http://www.w3.org/2000/svg"
 width="728.000000pt" height="704.000000pt" viewBox="0 0 728.000000 704.000000"
 preserveAspectRatio="xMidYMid meet">
<metadata>
Created by potrace 1.16, written by Peter Selinger 2001-2019
</metadata>
<g transform="translate(0.000000,704.000000) scale(0.100000,-0.100000)"
fill="#000000" stroke="none">
<path d="M1799 5517 c-109 -31 -196 -133 -208 -245 l-6 -55 -58 -12 c-70 -14
-129 -54 -173 -118 -39 -57 -54 -103 -54 -171 0 -80 28 -151 81 -205 71 -72
106 -86 220 -86 91 0 98 2 149 33 29 18 56 29 59 25 3 -4 51 -48 106 -98 55
-49 156 -142 225 -205 69 -64 144 -134 168 -155 23 -21 42 -42 42 -47 0 -4
-131 -8 -291 -8 -326 0 -329 -1 -368 -70 -27 -48 -27 -92 1 -141 36 -65 58
-69 378 -69 l280 0 5 -22 c2 -13 9 -52 15 -86 50 -293 218 -559 493 -784 l28
-23 -133 -120 c-72 -66 -141 -129 -152 -140 -12 -11 -41 -38 -66 -59 -25 -21
-99 -89 -164 -150 -66 -61 -125 -110 -132 -110 -7 1 -10 -5 -7 -12 7 -18 -11
-18 -26 0 -25 30 -115 59 -181 59 -130 0 -222 -60 -277 -180 -51 -110 -15
-271 76 -342 47 -37 92 -59 138 -69 34 -7 39 -12 47 -47 17 -81 40 -131 83
-176 138 -148 376 -119 480 59 22 36 28 61 31 128 4 73 2 88 -23 140 l-26 59
88 83 c48 45 109 101 136 123 l47 41 0 -45 c0 -66 27 -209 55 -288 103 -295
386 -437 830 -415 357 17 575 143 672 390 29 74 63 237 63 300 0 25 4 46 9 46
8 0 261 -229 261 -237 0 -2 -9 -22 -21 -45 -58 -114 -33 -266 59 -354 83 -80
237 -104 337 -52 94 49 155 135 169 239 7 45 8 47 45 52 87 11 177 83 219 175
49 107 15 263 -74 341 -100 88 -260 99 -368 26 l-38 -26 -51 49 c-29 27 -88
82 -132 122 -44 40 -107 99 -140 129 -33 31 -122 112 -199 181 l-138 124 33
26 c122 90 284 280 363 422 59 107 114 276 140 431 l7 37 282 0 c316 0 330 3
375 70 42 62 19 153 -50 194 -22 14 -69 16 -311 16 -157 0 -288 4 -291 8 -2 4
59 66 137 137 77 72 152 141 166 155 14 14 71 66 126 115 55 50 103 95 108
100 4 6 10 6 15 -2 4 -7 34 -24 66 -39 147 -67 324 -6 397 139 30 58 37 159
14 226 -34 104 -127 185 -226 198 -21 3 -39 6 -39 7 0 1 -5 29 -11 62 -21 115
-100 206 -208 238 -111 33 -201 12 -284 -64 -60 -55 -81 -91 -98 -168 -12 -59
0 -136 31 -197 l19 -38 -42 -41 c-24 -23 -111 -103 -194 -178 l-151 -137 -53
77 c-29 42 -75 100 -102 129 -27 29 -56 61 -63 72 -28 40 -212 168 -320 224
-201 103 -392 142 -639 133 -205 -7 -341 -41 -525 -132 -191 -94 -371 -250
-486 -421 l-56 -83 -62 57 c-33 31 -115 106 -181 167 -66 61 -125 116 -132
122 -9 9 -7 21 10 55 29 59 32 215 4 270 -25 51 -95 118 -144 141 -55 24 -155
31 -214 15z m162 -59 c22 -6 57 -27 79 -46 98 -83 117 -216 45 -322 l-33 -49
165 -153 c91 -84 190 -175 219 -203 l55 -50 -30 -61 c-35 -73 -66 -164 -83
-245 -7 -33 -15 -59 -19 -59 -8 0 -69 53 -199 175 -68 63 -274 253 -324 298
-36 33 -37 33 -67 1 -57 -62 -187 -89 -256 -54 -95 48 -143 116 -150 215 -4
51 -1 68 24 115 46 90 146 149 233 137 l36 -4 -4 67 c-3 56 0 74 21 117 54
106 172 156 288 121z m3516 -3 c60 -25 102 -63 129 -117 22 -44 25 -61 22
-119 l-4 -69 36 6 c88 14 200 -55 239 -147 47 -109 11 -224 -93 -293 -53 -35
-64 -39 -125 -39 -72 -1 -94 8 -158 60 -24 19 -48 31 -54 27 -6 -3 -36 -29
-66 -58 -31 -28 -62 -50 -69 -50 -8 1 -11 -2 -8 -7 3 -5 -25 -38 -63 -72 -37
-35 -128 -120 -201 -188 -74 -68 -137 -125 -141 -127 -3 -1 -12 26 -18 61 -14
72 -48 175 -86 258 l-25 56 145 134 c80 74 166 153 192 177 25 24 61 55 79 69
32 25 32 26 14 44 -39 35 -64 90 -69 148 -5 49 -1 68 19 113 27 59 85 115 139
134 48 17 123 17 166 -1z m-1600 -205 c126 -25 191 -48 318 -110 218 -107 430
-311 531 -511 l34 -69 -1120 0 c-616 0 -1120 2 -1120 5 0 13 85 154 122 205
53 70 185 201 267 264 126 97 340 190 511 222 109 20 342 17 457 -6z m1576
-1139 c87 -2 128 -80 72 -136 l-24 -25 -1861 0 -1861 0 -24 26 c-30 33 -32 73
-5 107 19 24 28 26 108 29 84 3 3499 2 3595 -1z m-583 -225 c0 -28 -37 -182
-59 -247 -210 -621 -877 -972 -1508 -794 -94 27 -303 125 -366 172 -235 174
-375 360 -465 615 -24 67 -62 224 -62 254 0 2 554 4 1230 4 677 0 1230 -2
1230 -4z m-1944 -1013 c-66 -129 -105 -300 -106 -459 l0 -72 -112 -105 c-62
-57 -140 -129 -173 -160 l-60 -56 23 -28 c64 -79 75 -184 27 -271 -35 -65 -80
-100 -152 -119 -98 -25 -197 10 -252 90 -40 60 -54 109 -46 167 l7 50 -47 0
c-69 0 -119 18 -164 59 -58 52 -81 103 -81 177 0 135 109 244 244 244 49 0
132 -37 165 -73 l24 -27 76 67 c42 37 103 93 136 124 76 71 384 351 444 404
25 22 48 43 49 48 2 4 10 7 18 7 11 0 5 -18 -20 -67z m1519 -28 c200 -183 242
-222 330 -300 82 -73 123 -111 240 -218 l40 -36 30 29 c116 112 293 85 377
-58 51 -86 31 -220 -44 -289 -38 -36 -109 -63 -166 -63 l-53 0 6 -47 c7 -55
-15 -140 -34 -135 -7 1 -10 -2 -6 -8 9 -14 -34 -67 -73 -90 -120 -71 -266 -33
-333 85 -50 90 -46 178 12 264 l31 45 -60 56 c-33 30 -110 100 -170 155 l-109
99 -6 121 c-6 135 -35 266 -87 386 -17 41 -34 80 -37 88 -11 25 13 7 112 -84z
m-1387 31 c26 -12 80 -36 121 -51 l73 -29 -6 -45 c-3 -26 -8 -81 -12 -123 -4
-43 -10 -78 -14 -78 -40 0 -233 92 -277 132 -21 20 -21 20 -3 71 18 53 61 147
67 147 2 0 25 -11 51 -24z m1254 -53 c55 -120 55 -114 1 -155 -27 -19 -68 -46
-93 -58 -42 -21 -145 -60 -160 -60 -4 0 -10 35 -13 78 -4 42 -9 97 -13 122
l-6 46 93 37 c52 21 105 44 119 52 14 8 28 14 31 15 3 0 22 -35 41 -77z m-925
-57 c38 -8 103 -18 146 -22 l77 -7 0 -117 0 -117 -77 4 c-80 4 -245 22 -251
27 -7 7 25 246 33 246 2 0 34 -6 72 -14z m587 -18 c9 -54 26 -211 23 -214 -4
-4 -158 -22 -244 -29 l-83 -6 0 119 0 119 78 7 c42 4 104 13 137 20 85 19 84
19 89 -16z m-925 -198 c31 -15 82 -34 113 -44 50 -15 57 -21 54 -39 -3 -12 -8
-56 -11 -97 -3 -41 -9 -92 -12 -112 l-5 -37 -49 18 c-72 28 -176 89 -222 130
l-40 36 7 90 c3 49 9 102 12 117 l6 27 46 -31 c25 -17 71 -43 101 -58z m1348
-53 c5 -77 4 -90 -13 -108 -45 -50 -234 -159 -275 -159 -18 0 -23 23 -34 150
-4 36 -8 75 -11 87 -3 19 3 24 52 38 69 20 190 78 230 110 l29 23 8 -26 c4
-15 10 -66 14 -115z m-379 -139 c7 -68 12 -130 12 -139 0 -20 -85 -35 -247
-45 l-113 -7 0 141 0 142 88 1 c68 0 176 13 243 28 3 0 10 -54 17 -121z m-623
102 c39 -5 103 -10 143 -11 l72 -2 0 -140 0 -140 -111 6 c-141 8 -239 25 -246
43 -3 8 1 68 7 134 15 138 2 128 135 110z m-359 -239 c147 -72 358 -111 604
-111 302 0 522 51 688 160 l72 48 0 -28 c0 -62 -31 -259 -49 -311 -82 -238
-247 -362 -534 -399 -164 -21 -383 -8 -507 31 -77 24 -183 80 -224 117 -54 50
-115 142 -144 220 -30 78 -45 153 -58 296 l-7 80 50 -37 c28 -20 77 -50 109
-66z"/>
<path d="M2989 4926 c-67 -55 -136 -131 -183 -200 -30 -45 -31 -50 -10 -70 27
-27 50 -18 92 37 43 57 163 180 200 204 36 25 24 83 -18 83 -9 0 -45 -24 -81
-54z"/>
<path d="M4336 4894 c-26 -26 -19 -47 34 -99 28 -28 68 -75 88 -105 51 -76 58
-82 89 -78 35 4 43 44 16 85 -29 46 -145 177 -172 195 -32 22 -36 22 -55 2z"/>
<path d="M3116 4831 c-86 -87 -127 -150 -124 -186 2 -24 8 -31 30 -33 23 -3
34 7 81 70 29 40 70 89 90 110 41 40 47 72 18 88 -31 16 -35 14 -95 -49z"/>
<path d="M4102 4838 c-21 -21 -13 -45 28 -93 22 -26 47 -59 54 -73 23 -44 52
-65 81 -58 41 10 33 52 -26 131 -75 100 -107 123 -137 93z"/>
<path d="M3293 4768 c-87 -94 -107 -152 -56 -164 28 -7 51 13 124 110 34 45
34 49 13 70 -24 24 -47 19 -81 -16z"/>
<path d="M3078 3817 c-91 -26 -176 -99 -217 -186 -35 -75 -37 -210 -4 -283 75
-166 272 -245 446 -179 133 51 214 185 205 339 -6 98 -30 154 -98 220 -83 82
-223 119 -332 89z"/>
<path d="M4076 3814 c-88 -21 -181 -99 -220 -184 -17 -36 -21 -65 -21 -145 0
-120 21 -173 98 -247 91 -87 224 -115 351 -73 74 23 165 108 196 181 85 197
-20 416 -225 469 -71 18 -101 18 -179 -1z"/>
<path d="M3598 3110 c-152 -27 -111 -170 49 -170 56 0 108 27 125 65 30 67
-65 125 -174 105z"/>
</g>
</svg>
